<?xml version="1.0" encoding="UTF-8"?>
<svg version="1.1" xmlns="http://www.w3.org/2000/svg" width="48" height="48">
<path d="M0 0 C15.84 0 31.68 0 48 0 C48 15.84 48 31.68 48 48 C32.16 48 16.32 48 0 48 C0 32.16 0 16.32 0 0 Z " fill="#FEFDFC" transform="translate(0,0)"/>
<path d="M0 0 C9.57 0 19.14 0 29 0 C29 15.84 29 31.68 29 48 C21.41 48 13.82 48 6 48 C6.67921319 41.88708126 7.4795493 36.40122964 9.03125 30.53515625 C9.22722778 29.77577255 9.42320557 29.01638885 9.62512207 28.23399353 C10.03574554 26.6476712 10.44930656 25.06210652 10.86572266 23.47729492 C11.50438864 21.04579173 12.13378188 18.61202816 12.76171875 16.17773438 C13.16353125 14.63007031 13.56585632 13.08253921 13.96875 11.53515625 C14.15731567 10.80813004 14.34588135 10.08110382 14.54016113 9.33204651 C15.88302921 4.23394157 15.88302921 4.23394157 17 2 C12.38 2.66 7.76 3.32 3 4 C2.01 2.68 1.02 1.36 0 0 Z " fill="#FEFEFC" transform="translate(19,0)"/>
<path d="M0 0 C2.5625 0.3125 2.5625 0.3125 3.7734375 1.8515625 C6.63000825 4.18422071 9.19011019 3.35925493 12.75 3 C14.02230469 2.88011719 15.29460938 2.76023438 16.60546875 2.63671875 C17.58128906 2.52972656 18.55710937 2.42273438 19.5625 2.3125 C16.37913157 17.43844318 12.50865382 32.36968649 8.5625 47.3125 C6.12522586 44.87522586 5.65794746 42.96472287 4.625 39.6875 C3.46227144 36.07396439 2.29151426 32.48405511 0.9375 28.9375 C0.48375 27.74125 0.03 26.545 -0.4375 25.3125 C-0.788125 24.405 -1.13875 23.4975 -1.5 22.5625 C-3.34693372 16.15979645 -4.97103951 9.0049413 -4.4375 2.3125 C-2.4375 0.3125 -2.4375 0.3125 0 0 Z " fill="#BACE5F" transform="translate(16.4375,-0.3125)"/>
<path d="M0 0 C2.5 0.25 2.5 0.25 4.5 2.25 C5.00635262 8.22496094 4.167235 11.91553 1.5 17.25 C-2.46322289 14.04167671 -4.25933305 9.41600253 -4.8125 4.4375 C-4.3407275 1.13509252 -3.27406827 0.32740683 0 0 Z " fill="#CF1128" transform="translate(16.5,-0.25)"/>
<path d="M0 0 C1.9375 0.6875 1.9375 0.6875 4 2 C4.75 4.625 4.75 4.625 5 7 C3.02 7.99 1.04 8.98 -1 10 C-1.9765625 3.9453125 -1.9765625 3.9453125 -2 2 C-1.34 1.34 -0.68 0.68 0 0 Z " fill="#D0334B" transform="translate(14,0)"/>
<path d="M0 0 C1.32 0 2.64 0 4 0 C4 1.32 4 2.64 4 4 C2.35 4 0.7 4 -1 4 C-0.67 2.68 -0.34 1.36 0 0 Z " fill="#F9E6E9" transform="translate(15,3)"/>
</svg>
